<svg xmlns="http://www.w3.org/2000/svg" viewBox="0 0 1280 720" role="img" aria-label="qwen38-uncensored">
  <defs>
    <linearGradient id="void" x1="0" y1="0" x2="1" y2="1">
      <stop offset="0" stop-color="#07040F"/>
      <stop offset="0.45" stop-color="#14081F"/>
      <stop offset="1" stop-color="#05030A"/>
    </linearGradient>
    <radialGradient id="nebulaL" cx="0.22" cy="0.38" r="0.55">
      <stop offset="0" stop-color="#7B2CBF" stop-opacity="0.55"/>
      <stop offset="0.55" stop-color="#4C1D95" stop-opacity="0.22"/>
      <stop offset="1" stop-color="#4C1D95" stop-opacity="0"/>
    </radialGradient>
    <radialGradient id="nebulaR" cx="0.78" cy="0.62" r="0.5">
      <stop offset="0" stop-color="#C026D3" stop-opacity="0.38"/>
      <stop offset="1" stop-color="#C026D3" stop-opacity="0"/>
    </radialGradient>
    <radialGradient id="ember" cx="0.28" cy="0.42" r="0.28">
      <stop offset="0" stop-color="#FDBA74" stop-opacity="0.85"/>
      <stop offset="0.35" stop-color="#F97316" stop-opacity="0.35"/>
      <stop offset="1" stop-color="#F97316" stop-opacity="0"/>
    </radialGradient>
    <linearGradient id="scale" x1="0" y1="0" x2="1" y2="1">
      <stop offset="0" stop-color="#C4B5FD"/>
      <stop offset="0.28" stop-color="#7C3AED"/>
      <stop offset="0.7" stop-color="#2E1065"/>
      <stop offset="1" stop-color="#0F0518"/>
    </linearGradient>
    <linearGradient id="scaleHi" x1="0.2" y1="0" x2="0.9" y2="1">
      <stop offset="0" stop-color="#FDE68A"/>
      <stop offset="0.45" stop-color="#F59E0B"/>
      <stop offset="1" stop-color="#7C2D12" stop-opacity="0"/>
    </linearGradient>
    <linearGradient id="gold" x1="0" y1="0" x2="0" y2="1">
      <stop offset="0" stop-color="#FEF3C7"/>
      <stop offset="0.4" stop-color="#FBBF24"/>
      <stop offset="1" stop-color="#B45309"/>
    </linearGradient>
    <linearGradient id="mane" x1="0" y1="0" x2="1" y2="1">
      <stop offset="0" stop-color="#FDBA74"/>
      <stop offset="0.5" stop-color="#F59E0B"/>
      <stop offset="1" stop-color="#7C2D12"/>
    </linearGradient>
    <filter id="soft" x="-20%" y="-20%" width="140%" height="140%">
      <feGaussianBlur stdDeviation="8"/>
    </filter>
    <filter id="glow" x="-40%" y="-40%" width="180%" height="180%">
      <feGaussianBlur stdDeviation="6" result="b"/>
      <feMerge><feMergeNode in="b"/><feMergeNode in="SourceGraphic"/></feMerge>
    </filter>
  </defs>

  <rect width="1280" height="720" fill="url(#void)"/>
  <ellipse cx="280" cy="270" rx="420" ry="280" fill="url(#nebulaL)"/>
  <ellipse cx="980" cy="460" rx="380" ry="260" fill="url(#nebulaR)"/>
  <ellipse cx="340" cy="310" rx="220" ry="160" fill="url(#ember)" filter="url(#soft)"/>

  <g fill="#FDE68A" opacity="0.55">
    <circle cx="86" cy="64" r="1.2"/>
    <circle cx="210" cy="118" r="0.9"/>
    <circle cx="340" cy="42" r="1.1"/>
    <circle cx="490" cy="96" r="0.8"/>
    <circle cx="640" cy="38" r="1.3"/>
    <circle cx="780" cy="88" r="0.7"/>
    <circle cx="920" cy="54" r="1.1"/>
    <circle cx="1080" cy="110" r="0.9"/>
    <circle cx="1188" cy="72" r="1.2"/>
    <circle cx="160" cy="540" r="0.8"/>
    <circle cx="70" cy="420" r="1"/>
    <circle cx="1180" cy="520" r="0.9"/>
    <circle cx="1040" cy="640" r="1.1"/>
    <circle cx="860" cy="680" r="0.7"/>
    <circle cx="420" cy="660" r="1"/>
    <circle cx="250" cy="690" r="0.8"/>
  </g>

  <!-- tail (right) -->
  <path fill="url(#scale)" d="M1188 430c-28 8-62 4-92-18-26-18-38-42-28-62 14-28 58-22 86-4 22 14 40 38 34 84z"/>
  <path fill="url(#gold)" d="M1224 404c-10 18-22 34-40 40l8 18c28-10 48-34 58-62-8 0-18 2-26 4z"/>
  <path fill="none" stroke="#FBBF24" stroke-width="3" stroke-linecap="round" d="M1164 392c18-22 34-28 52-24"/>
  <path fill="none" stroke="#F59E0B" stroke-width="2" stroke-linecap="round" d="M1152 408c22-8 40-4 58 10"/>

  <!-- hind coils -->
  <path fill="url(#scale)" d="M980 250c70 8 128 54 148 118 16 52-4 108-48 138-48 34-118 28-168-8-42-30-62-82-50-130 14-56 62-112 118-118z"/>
  <path fill="url(#scaleHi)" opacity="0.45" d="M1008 268c48 10 92 48 108 96 12 38-2 80-34 104"/>
  <g fill="none" stroke="#A78BFA" stroke-width="1.2" opacity="0.35">
    <path d="M1000 290c40 8 78 40 92 78"/>
    <path d="M988 320c38 10 70 40 80 74"/>
    <path d="M972 352c34 12 60 38 68 70"/>
  </g>

  <!-- mid body S -->
  <path fill="url(#scale)" d="M720 168c86-18 176 12 228 78 44 54 52 128 18 186-30 52-90 86-154 86-78 0-150-48-176-118-22-58-8-128 42-168 30-24 70-50 42-64z"/>
  <path fill="url(#scaleHi)" opacity="0.4" d="M760 190c70-8 140 22 178 74 32 44 38 102 12 148"/>
  <g fill="none" stroke="#C4B5FD" stroke-width="1.4" opacity="0.4">
    <path d="M780 210c60 4 118 42 148 96"/>
    <path d="M752 248c58 8 108 46 132 96"/>
    <path d="M728 292c50 12 92 50 110 96"/>
    <path d="M710 338c42 14 76 48 90 90"/>
  </g>
  <path fill="url(#gold)" opacity="0.85" d="M838 148c8 18 4 40-12 58l22 10c22-26 28-58 16-84-8 4-18 10-26 16z"/>
  <path fill="url(#gold)" opacity="0.75" d="M900 176c6 16 0 36-16 52l20 8c22-22 28-52 18-74-8 4-16 8-22 14z"/>
  <path fill="url(#gold)" opacity="0.7" d="M958 214c4 14-2 32-16 46l18 8c20-20 24-46 16-66-6 2-12 6-18 12z"/>

  <!-- chest / neck -->
  <path fill="url(#scale)" d="M430 210c78-62 188-70 268-22 58 36 86 102 70 166-18 72-86 122-162 128-86 6-176-40-210-118-22-50-10-102 34-154z"/>
  <path fill="url(#scaleHi)" opacity="0.5" d="M470 228c64-42 150-48 214-10 48 30 70 86 56 138"/>
  <g fill="none" stroke="#DDD6FE" stroke-width="1.3" opacity="0.35">
    <path d="M500 250c56-28 128-28 180 8"/>
    <path d="M478 292c54-22 120-20 168 18"/>
    <path d="M462 336c48-16 108-12 150 24"/>
    <path d="M454 380c40-10 90-4 124 28"/>
  </g>

  <!-- dorsal spines along neck/body -->
  <g fill="url(#gold)">
    <path d="M560 188l18-46 14 48z"/>
    <path d="M610 168l16-52 16 50z"/>
    <path d="M662 158l14-48 16 46z"/>
    <path d="M716 162l12-44 16 42z"/>
    <path d="M820 198l10-38 14 36z"/>
    <path d="M878 230l8-32 12 30z"/>
    <path d="M980 278l10-36 12 34z"/>
    <path d="M1048 318l8-30 12 28z"/>
  </g>

  <!-- rear claw -->
  <g fill="url(#gold)">
    <path d="M1088 478c18 8 28 28 22 48-18 4-34-8-44-24 4-10 12-20 22-24z"/>
    <path d="M1108 522l28 18-8 10-28-14z"/>
    <path d="M1092 530l18 26-10 6-16-24z"/>
    <path d="M1074 526l6 28-12 2-4-28z"/>
  </g>

  <!-- mid claw -->
  <g fill="url(#gold)">
    <path d="M780 468c22 4 36 24 32 46-20 8-40-4-52-22 6-12 14-22 20-24z"/>
    <path d="M808 510l30 14-6 10-30-10z"/>
    <path d="M792 518l16 26-10 6-14-24z"/>
    <path d="M772 516l4 28-12 2 0-28z"/>
  </g>

  <!-- foreleg -->
  <g>
    <path fill="url(#scale)" d="M488 430c28 18 36 52 22 84-8 18-28 30-48 28-22-2-40-22-42-44-2-28 18-58 44-70 8-4 16-2 24 2z"/>
    <g fill="url(#gold)">
      <path d="M454 534l-8 36-12-4 6-36z"/>
      <path d="M470 540l6 38-12 2-6-36z"/>
      <path d="M488 536l22 30-10 8-20-28z"/>
      <path d="M504 522l34 18-8 12-32-14z"/>
    </g>
  </g>

  <!-- mane / whiskers / fire -->
  <g filter="url(#glow)">
    <path fill="url(#mane)" opacity="0.9" d="M210 250c40-70 8-140-40-168 48 8 110 58 128 128 8 32-8 70-40 88-16-18-32-32-48-48z"/>
    <path fill="#FDBA74" opacity="0.55" d="M168 300c-70-10-120-70-128-140 40 48 86 88 150 108-8 12-16 22-22 32z"/>
    <path fill="#FB923C" opacity="0.7" d="M90 280c-48-36-70-96-62-150 8 58 40 108 92 138-12 6-22 10-30 12z"/>
    <path fill="#FED7AA" opacity="0.5" d="M140 220c-36-48-40-110-18-160 6 52 28 100 70 132-18 8-36 18-52 28z"/>
  </g>
  <g fill="none" stroke="#FBBF24" stroke-width="2.2" stroke-linecap="round" opacity="0.85">
    <path d="M248 318c-70-8-128-40-170-88"/>
    <path d="M252 338c-86 4-150-18-198-62"/>
    <path d="M260 300c-48-28-70-70-66-118"/>
  </g>
  <g fill="#FDBA74" opacity="0.8">
    <circle cx="96" cy="210" r="3.5"/>
    <circle cx="70" cy="248" r="2.4"/>
    <circle cx="128" cy="176" r="2.8"/>
    <circle cx="54" cy="300" r="2"/>
    <circle cx="160" cy="140" r="2.2"/>
    <circle cx="40" cy="188" r="1.6"/>
    <circle cx="188" cy="118" r="1.8"/>
  </g>

  <!-- head -->
  <path fill="url(#scale)" d="M248 250c28-54 86-86 148-78 48 6 92 40 108 86 14 40 2 86-30 114-36 32-90 40-136 24-52-18-90-64-90-146z"/>
  <path fill="url(#scaleHi)" opacity="0.55" d="M280 262c24-40 72-64 120-56 36 6 70 32 82 66"/>
  <path fill="#1A0B2E" d="M268 318c18 22 48 36 82 36 8 0 16-2 22-4-28 28-78 28-112 4 4-12 6-24 8-36z"/>
  <path fill="#0B0612" d="M250 300c20 8 28 28 18 48-22-8-36-28-18-48z"/>

  <!-- horns -->
  <g fill="url(#gold)">
    <path d="M338 214c-8-64 18-118 62-148-28 48-22 100 4 140-24 4-48 8-66 8z"/>
    <path d="M378 206c8-58 48-102 102-118-40 42-42 92-18 132-30 0-58 0-84-14z"/>
    <path d="M330 198c-18-36-18-78 4-112 8 34 18 64 40 86-16 8-32 16-44 26z"/>
    <path d="M400 188c12-40 48-70 92-78-28 28-32 62-16 92-28-2-52-6-76-14z"/>
  </g>
  <g fill="none" stroke="#FEF3C7" stroke-width="1.4" opacity="0.5">
    <path d="M348 200c-4-40 12-78 40-104"/>
    <path d="M392 196c10-36 38-66 78-78"/>
  </g>

  <!-- eye -->
  <ellipse cx="318" cy="292" rx="22" ry="14" fill="#111"/>
  <ellipse cx="322" cy="292" rx="14" ry="9" fill="#F59E0B"/>
  <ellipse cx="326" cy="290" rx="6" ry="5" fill="#FEF3C7"/>
  <circle cx="328" cy="288" r="2" fill="#111"/>

  <!-- snout / teeth / whisker -->
  <path fill="#2E1065" d="M248 318c-28 8-48 8-70 0 18 22 48 34 86 28 4-8 0-18-16-28z"/>
  <g fill="#FEF3C7">
    <path d="M236 328l-6 14 10 2z"/>
    <path d="M252 332l-4 12 10 0z"/>
    <path d="M268 334l-2 10 10-2z"/>
  </g>
  <path fill="none" stroke="#FDE68A" stroke-width="2.4" stroke-linecap="round" d="M230 312c-40 18-64 58-58 108"/>
  <path fill="none" stroke="#FBBF24" stroke-width="1.8" stroke-linecap="round" d="M238 306c-24-32-18-78 12-118"/>

  <!-- beard tuft -->
  <path fill="url(#mane)" d="M300 360c8 28-4 54-28 70 28-4 56-22 64-52 4-16-8-28-36-18z"/>
</svg>
