<svg xmlns="http://www.w3.org/2000/svg" viewBox="0 0 1200 420" role="img" aria-label="qwen36-uncensored product shot">
  <defs>
    <style>
      .t { font-family: ui-monospace,SFMono-Regular,Consolas,monospace; font-size: 17px; }
      .title { font-family: ui-monospace,Consolas,monospace; font-size: 14px; fill: #7D8590; }
    </style>
    <clipPath id="panel"><rect x="1" y="1" width="1198" height="418" rx="14"/></clipPath>
  </defs>
  <rect x="1" y="1" width="1198" height="418" rx="14" fill="#0D1117" stroke="#30363D" stroke-width="1.5"/>
  <g clip-path="url(#panel)">
    <path d="M1,15 a14,14 0 0 1 14,-14 h1170 a14,14 0 0 1 14,14 v41 h-1198 z" fill="#161B22"/>
    <line x1="1" y1="56" x2="1199" y2="56" stroke="#30363D" stroke-width="1"/>
    <circle cx="30" cy="28" r="7" fill="#FF5F57"/>
    <circle cx="54" cy="28" r="7" fill="#FEBC2E"/>
    <circle cx="78" cy="28" r="7" fill="#28C840"/>
    <text x="600" y="33" text-anchor="middle" class="title">qwen36-uncensored  pull official 17GB, bake SYSTEM</text>
    <rect x="0" y="56" width="4" height="364" fill="#8B7CF6" opacity="0.85"/>
    <text x="36" y="106" class="t"><tspan fill="#7D8590">$ </tspan><tspan fill="#8B7CF6" font-weight="600">node bin/install.cjs</tspan></text>
    <text x="36" y="136" class="t" fill="#C9D1D9">FROM qwen3.6:27b   PARAMETER num_ctx 8192   PARAMETER num_gpu 99</text>
    <text x="36" y="166" class="t" fill="#7D8590">pull official Q4_K_M (~17 GB)  weights are not in this git tree</text>
    <text x="36" y="196" class="t" fill="#C9D1D9">create qwen3.6:27b-uncensored  ·  Arditi layer 38  ·  131 matrices</text>
    <text x="36" y="256" class="t"><tspan fill="#7D8590">$ </tspan><tspan fill="#8B7CF6" font-weight="600">ollama run --think=false qwen3.6:27b-uncensored</tspan></text>
    <text x="36" y="286" class="t" fill="#3FB950">think-off cheap path · ~43 tok/s on a 24 GB card · ~16 GB resident</text>
    <text x="36" y="316" class="t" fill="#C9D1D9">node examples/chat.cjs "one local completion, same pack prepended"</text>
    <text x="36" y="366" class="t" fill="#7D8590">refusal 0-6% thinking-off · Fully uncensored · Apache-2.0 weights</text>
  </g>
</svg>
